<svg width="77" height="76" viewBox="0 0 77 76" fill="none" xmlns="http://www.w3.org/2000/svg">
<path opacity="0.26" d="M47.67 4.15004L52.59 19.92C53.15 21.73 54.57 23.14 56.37 23.7L72.15 28.59C76.7 30 77.66 36.0101 73.77 38.7701L60.29 48.3201C58.75 49.4101 57.84 51.2 57.87 53.09L58.1 69.61C58.17 74.37 52.74 77.14 48.92 74.3L35.67 64.43C34.15 63.3 32.18 62.9901 30.39 63.6001L14.75 68.92C10.24 70.45 5.92997 66.15 7.45997 61.64L12.75 45.9901C13.36 44.2001 13.04 42.2201 11.91 40.7101L1.99998 27.47C-0.850024 23.66 1.90999 18.23 6.66999 18.28L23.19 18.48C25.08 18.5 26.86 17.59 27.95 16.05L37.48 2.55005C40.23 -1.33995 46.25 -0.399962 47.67 4.15004Z" fill="#FFAC4B"/>
</svg>
