<svg width="32" height="32" viewBox="0 0 32 32" fill="none" xmlns="http://www.w3.org/2000/svg">
<path d="M18.39 2.15994L21.11 9.41994C21.34 10.0299 21.82 10.5099 22.42 10.7399L29.62 13.4899C31.56 14.2299 31.56 17.0099 29.62 17.7499L22.42 20.4999C21.81 20.7299 21.34 21.2099 21.11 21.8199L18.39 29.0799C17.65 31.0399 14.9 31.0399 14.17 29.0799L11.45 21.8199C11.22 21.2099 10.74 20.7299 10.14 20.4999L2.93999 17.7499C0.999985 17.0099 0.999985 14.2299 2.93999 13.4899L10.14 10.7399C10.75 10.5099 11.22 10.0299 11.45 9.41994L14.17 2.15994C14.9 0.199941 17.65 0.199941 18.39 2.15994Z" fill="#FFE36C" stroke="black" stroke-miterlimit="10" stroke-linecap="round" stroke-linejoin="round"/>
</svg>
