<svg width="96" height="112" viewBox="0 0 96 112" fill="none" xmlns="http://www.w3.org/2000/svg">
<path opacity="0.26" d="M37.17 3.09003L54.07 20.1C56.01 22.05 58.77 22.92 61.47 22.43L85.06 18.14C91.86 16.9 97.13 24 93.97 30.15L83.03 51.49C81.78 53.93 81.81 56.83 83.11 59.25L94.48 80.37C97.76 86.46 92.63 93.66 85.81 92.56L62.14 88.74C59.43 88.3 56.68 89.23 54.78 91.21L38.2 108.54C33.42 113.54 24.99 110.89 23.93 104.06L20.25 80.36C19.83 77.65 18.1 75.32 15.63 74.13L-5.98001 63.73C-12.21 60.73 -12.29 51.89 -6.13001 48.77L15.27 37.95C17.72 36.71 19.4 34.35 19.77 31.63L22.99 7.87003C23.91 1.01003 32.29 -1.80997 37.17 3.09003Z" fill="#3750CC"/>
</svg>
