<svg width="31" height="31" viewBox="0 0 31 31" fill="none" xmlns="http://www.w3.org/2000/svg">
<path d="M17.39 2.15994L20.11 9.41994C20.34 10.0299 20.82 10.5099 21.42 10.7399L28.62 13.4899C30.56 14.2299 30.56 17.0099 28.62 17.7499L21.42 20.4999C20.81 20.7299 20.34 21.2099 20.11 21.8199L17.39 29.0799C16.65 31.0399 13.9 31.0399 13.17 29.0799L10.45 21.8199C10.22 21.2099 9.73999 20.7299 9.13999 20.4999L1.93999 17.7499C-1.46627e-05 17.0099 -1.46627e-05 14.2299 1.93999 13.4899L9.13999 10.7399C9.74999 10.5099 10.22 10.0299 10.45 9.41994L13.17 2.15994C13.9 0.199941 16.65 0.199941 17.39 2.15994Z" fill="#FFE36C"/>
</svg>
