<?xml version="1.0" encoding="utf-8"?>
<!-- Generator: Adobe Illustrator 23.1.0, SVG Export Plug-In . SVG Version: 6.00 Build 0)  -->
<svg version="1.1" id="图层_1" xmlns="http://www.w3.org/2000/svg" xmlns:xlink="http://www.w3.org/1999/xlink" x="0px" y="0px"
	 viewBox="0 0 24 24" style="enable-background:new 0 0 24 24;" xml:space="preserve">
<style type="text/css">
	.st0{fill:none;stroke:#000000;stroke-width:2;stroke-linecap:round;stroke-linejoin:round;}
</style>
<path class="st0" d="M10,2v2"/>
<path class="st0" d="M14,2v2"/>
<path class="st0" d="M16,8c0.6,0,1,0.4,1,1v8c0,2.2-1.8,4-4,4H7c-2.2,0-4-1.8-4-4V9c0-0.6,0.4-1,1-1h14c2.2,0,4,1.8,4,4s-1.8,4-4,4
	h-1"/>
<path class="st0" d="M6,2v2"/>
<polygon points="3.6,7.9 17,8 16.4,18.5 14,20.5 5.2,20 3.6,18.3 3.6,15.8 2.6,8.3 "/>
</svg>
