<svg xmlns="http://www.w3.org/2000/svg" viewBox="0 0 24 24" style="enable-background:new 0 0 24 24" xml:space="preserve"><path d="M19.8 24H4.2C1.9 24 0 22.1 0 19.8V4.2C0 1.9 1.9 0 4.2 0h15.6C22.1 0 24 1.9 24 4.2v15.6c0 2.3-1.9 4.2-4.2 4.2z"/><path d="M21 10.2h.7c.4 0 .7-.3.7-.7v-.2c-.1-.3-.4-.6-.8-.5-.3 0-.6.3-.6.7v.7zm-10 4.1H9.5c-.2 0-.4 0-.7-.1l-.6 1.3c.1.1.3.1.4.1h1.7l.7-1.3c.1 0 .1 0 0 0 .1 0 .1 0 0 0zm-8.9-4.1c-.1 0-.1 0 0 0-.1 0-.1.1 0 0-.1.4-.1.5-.3 2.7 0 .2 0 .3-.1.5v.1c0 .1.6 1.3.7 1.5.1-.2.2-.3.3-.5.3-.6.4-1.2.5-1.5v-.3l.2-2.3v-.3H2.1zm6.2 3.2c-.1-.2-.1-.3-.1-.5 0-.1 0-.3-.2-2.6v-.1H6.6v.3c.1.8.1 1.7.2 2.5 0 .3.2.9.4 1.5.1.2.2.4.3.5.1.1.7-1.4.8-1.6 0 .1 0 .1 0 0zm3.3-.8h-.8c-.1 0-.1 0-.1-.1l1-2.3h-1.1c-.1 0-.1-.1-.1-.1V10l.8-1.7H9.9l-.8 1.8c-.1.1-.3.5-.3.8v.2c0 .1.1.3.2.3.1.1.3.1.4.1h.5s-.6 1.3-.7 1.7v.1c0 .1.1.3.2.3.1.1.3.1.4.1h1.4l.4-1.1c0 .1 0 .1 0 0zm-6-4.2H4.3v5.9c0 .2-.2.2-.2.2h-.7s.4.9.5 1.1h.8c.1 0 .3-.1.4-.1.3-.1.4-.4.5-.7 0-.1.1-.3.1-.5 0-1.9 0-3.9-.1-5.9.1 0 0 0 0 0zm10.2 5.9h-1.3v-4c0-.1 0-.1.1-.1h.7c.1 0 .1 0 .1-.1V8.9c0-.1 0-.1-.1-.1h-3c-.1 0-.1 0-.1.1v1.2c0 .1 0 .1.1.1h.7c.1 0 .1 0 .1.1v4c0 .1 0 .1-.1.1H11.8l-.6 1.3h4.5c.1 0 .1-1.4.1-1.4zm3.6-2.9h-.9v-1.1c0-.1 0-.1.1-.1h.7c.1 0 .1.1.1.2v1zm2.3.2c-.2-.1-.5-.2-.8-.2h-.2v-1.2c0-.2-.1-.3-.1-.5-.1-.3-.3-.5-.6-.7-.3-.1-.6-.2-.9-.2h-.6c-.1 0-.1 0-.1-.1v-.4h-1.3v.5h-.9v1.3c0 .1 0 .1.1.1h.7c.1 0 .1.1.1.1v1s0 .1-.1.1h-1.3c-.1 0-.1.1-.1.1v1.2s0 .1.1.1H17c.1 0 .1 0 .1.1v2.8c0 .1 0 .1.1.1h1.2c.1 0 .1 0 .1-.1v-2.8h2c.1 0 .2 0 .2.1.1.1.2.2.2.4v1c0 .2-.1.3-.3.3h-1c.2.4.3.8.5 1.1h1c.1 0 .2 0 .4-.1.5-.2.8-.6.8-1.1v-2c0-.1 0-.7-.6-1z" style="fill:#fff"/></svg>